# xmcd CD database file
# Copyright (C) 1993-1996 Ti Kan
#
# Track frame offsets:
# 150
# 11340
# 21857
# 35857
# 46650
# 56637
# 68287
# 77522
# 88865
# 100410
# 112115
# 122727
# 131427
# 139942
# 153392
# 162865
#
# Disc length: 2288 seconds
#
# Revision: 0
# Processed by: cddbd v1.4b41PL1 Copyright (c) Steve Scherf et al.
# Submitted via: inCDius 1.1b5
#
DISCID=cc08ee10
DTITLE=Grandpa Jones - Grandpa Jones The Country Music Hall Of Fame
DYEAR=1900
DGENRE=
TTITLE0=Rattler's Pup
TTITLE1=Eight More Miles To Louisville
TTITLE2=Dark As A Dungeon
TTITLE3=When The Jones' Get Together
TTITLE4=Mountain Dew
TTITLE5=Falling Leaves
TTITLE6=Daylight Saving Time
TTITLE7=It Takes A Lot Of Living
TTITLE8=The Huntin's Over For Tonight
TTITLE9=The All-American Boy
TTITLE10=Don't Look Back
TTITLE11=Waiting For A Train
TTITLE12=Old Towzer
TTITLE13=Don't Bring Your Banjo Home
TTITLE14=Pickin' Time
TTITLE15=Cindy
EXTD=
EXTT0=
EXTT1=
EXTT2=
EXTT3=
EXTT4=
EXTT5=
EXTT6=
EXTT7=
EXTT8=
EXTT9=
EXTT10=
EXTT11=
EXTT12=
EXTT13=
EXTT14=
EXTT15=
PLAYORDER=
